<?xml version="1.0" encoding="iso-8859-1"?>
<!-- Generator: Adobe Illustrator 19.0.0, SVG Export Plug-In . SVG Version: 6.00 Build 0)  -->
<svg version="1.1" id="Capa_1" xmlns="http://www.w3.org/2000/svg" xmlns:xlink="http://www.w3.org/1999/xlink" x="0px" y="0px"
	 viewBox="0 0 512 512" style="enable-background:new 0 0 512 512;" xml:space="preserve">
<g>
	<g>
		<path d="M376,282H271v-52.978c56.349-7.373,100-55.694,100-114.022C371,51.589,319.411,0,256,0S141,51.589,141,115
			c0,58.328,43.651,106.649,100,114.022V282H136c-63.411,0-115,51.589-115,115s51.589,115,115,115c33.939,0,65.303-14.483,87.188-40
			h65.625c21.885,25.517,53.248,40,87.188,40c63.411,0,115-51.589,115-115S439.411,282,376,282z M171,115c0-46.869,38.131-85,85-85
			s85,38.131,85,85s-38.131,85-85,85C209.131,200,171,161.869,171,115z M376,482c-26.987,0-51.775-12.396-68.011-34.009l-4.5-5.991
			h-94.978l-4.5,5.991C187.776,469.604,162.987,482,136,482c-46.869,0-85-38.131-85-85c0-46.869,38.131-85,85-85h240
			c46.869,0,85,38.131,85,85C461,443.869,422.869,482,376,482z"/>
	</g>
</g>
<g>
	<g>
		<polygon points="151,382 151,357 121,357 121,382 96,382 96,412 121,412 121,437 151,437 151,412 176,412 176,382 		"/>
	</g>
</g>
<g>
	<g>
		<circle cx="351" cy="372" r="20"/>
	</g>
</g>
<g>
	<g>
		<circle cx="401" cy="422" r="20"/>
	</g>
</g>
<g>
	<g>
		<rect x="236" y="362" width="40" height="30"/>
	</g>
</g>
<g>
	<g>
		<polygon points="236,75 236,155 296,115 		"/>
	</g>
</g>
<g>
</g>
<g>
</g>
<g>
</g>
<g>
</g>
<g>
</g>
<g>
</g>
<g>
</g>
<g>
</g>
<g>
</g>
<g>
</g>
<g>
</g>
<g>
</g>
<g>
</g>
<g>
</g>
<g>
</g>
</svg>
